# xmcd
#
# Track frame offsets:
#	150
#	16912
#	18017
#	31392
#	47415
#	60832
#	75195
#	96162
#	109707
#	124170
#	139092
#	153740
#	163490
#	180215
#	194300
#	204392
#	215497
#	226110
#	244257
#	258305
#	277170
#
# Disc length: 3959 seconds
#
# Revision: 1
# Processed by: cddbd v1.5.1PL0 Copyright (c) Steve Scherf et al.
# Submitted via: CDex 1.50Beta5
#
DISCID=100f7515
DTITLE=新日本プロレス - 超戦士の闘奏 [CD2]
DYEAR=1900
DGENRE=Unclassifiable
TTITLE0=ザ・グレイテスト・アイズ'97
TTITLE1=SONG N.J.P.
TTITLE2=クラッシュ
TTITLE3=愚零闘武多 協奏曲
TTITLE4=テンザン 〜時空〜
TTITLE5=サクセス 〜激走〜
TTITLE6=アイアン・マン
TTITLE7=スティングのテーマ
TTITLE8=スタイナー・ブラザーズのテーマ
TTITLE9=レックス・ルガーのテーマ
TTITLE10=アイズ・オブ・ザ・ワールド
TTITLE11=ロード・スティーブン・リーガルのテーマ
TTITLE12=ブラック・タイガーのテーマ
TTITLE13=スーパーライガー
TTITLE14=フライング・ボディープレス
TTITLE15=ザ・ファイト
TTITLE16=ブラック・ライダー
TTITLE17=燃えよ荒鷲
TTITLE18=愚零闘武多 協奏曲<ウイナー・ヴァージョン>
TTITLE19=炎のファイター〜INOKI BOM-BA-YE〜 <オーケストラ・ヴァージョン〉
TTITLE20=メッセージ・トゥ・ゴッド
EXTD=
EXTT0=
EXTT1=
EXTT2=
EXTT3=
EXTT4=
EXTT5=
EXTT6=
EXTT7=
EXTT8=
EXTT9=
EXTT10=
EXTT11=
EXTT12=
EXTT13=
EXTT14=
EXTT15=
EXTT16=
EXTT17=
EXTT18=
EXTT19=
EXTT20=
PLAYORDER=
